#N canvas 1920 58 1920 1022 10;
#X obj 233 180 osc~;
#X obj 233 203 snapshot~;
#X obj 322 185 metro 10;
#X obj 322 144 tgl 15 0 empty empty empty 17 7 0 10 -262144 -1 -1 0
1;
#X floatatom 233 116 5 0 0 0 - - -, f 5;
#X floatatom 233 283 5 0 0 0 - - -, f 5;
#X obj 913 751 netsend -u -b;
#X obj 913 614 list prepend send;
#X obj 913 637 list trim;
#X msg 1010 671 connect 10.11.12.1 6666;
#X msg 1011 714 disconnect;
#X obj 1010 647 loadbang;
#X floatatom 559 346 5 0 0 0 - shift -, f 5;
#X obj 612 395 loadbang;
#X obj 233 248 * 1000;
#X text 299 119 modulate index;
#X msg 612 418 set shift;
#X obj 612 441 oscformat -f shift;
#X text 555 319 shift;
#X obj 233 305 s shift;
#X floatatom 310 222 5 0 0 0 - - -, f 5;
#X connect 0 0 1 0;
#X connect 1 0 14 0;
#X connect 2 0 1 0;
#X connect 3 0 2 0;
#X connect 4 0 0 0;
#X connect 5 0 19 0;
#X connect 7 0 8 0;
#X connect 8 0 6 0;
#X connect 9 0 6 0;
#X connect 10 0 6 0;
#X connect 11 0 9 0;
#X connect 12 0 17 0;
#X connect 13 0 16 0;
#X connect 14 0 5 0;
#X connect 16 0 17 0;
#X connect 17 0 7 0;
#X connect 20 0 14 1;
