#N canvas 1920 106 1920 974 10;
#X obj 913 751 netsend -u -b;
#X obj 913 614 list prepend send;
#X obj 913 637 list trim;
#X msg 1010 671 connect 10.11.12.1 6666;
#X msg 1011 714 disconnect;
#X obj 1010 647 loadbang;
#X floatatom 834 378 5 0 0 0 - - -, f 5;
#X obj 887 427 loadbang;
#X obj 344 250 tgl 15 0 empty empty empty 17 7 0 10 -262144 -1 -1 1
1;
#X obj 569 550 loadbang;
#X msg 569 573 set trigger;
#X obj 569 596 oscformat -ff trigger;
#X obj 466 494 pack f f;
#X obj 344 303 metro 1000;
#X floatatom 481 353 5 0 0 0 - - -, f 5;
#X floatatom 401 275 5 0 0 0 - - -, f 5;
#X msg 466 465 \$1 \$2;
#X obj 466 413 f;
#X obj 466 436 pack f f;
#X floatatom 580 397 5 0 0 0 - - -, f 5;
#X obj 887 473 oscformat -f shift;
#X obj 392 398 bng 15 250 50 0 empty empty empty 17 7 0 10 -262144
-1 -1;
#X obj 534 105 osc~;
#X obj 534 128 snapshot~;
#X obj 629 110 metro 100;
#X obj 629 85 tgl 15 0 empty empty empty 17 7 0 10 -262144 -1 -1 0
1;
#X floatatom 534 64 5 0 0 0 - - -, f 5;
#X obj 534 151 + 1;
#X obj 534 174 *;
#X floatatom 607 157 5 0 0 0 - - -, f 5;
#X text 520 38 modulate the pluck position;
#X text 315 226 auto pluck;
#X text 365 249 pluck distance (ms);
#X msg 834 318 0.99;
#X obj 834 282 loadbang;
#X obj 580 330 loadbang;
#X text 564 418 shift factor (0...10);
#X text 788 379 gain;
#X msg 887 449 set gain;
#X msg 580 366 0.3;
#X obj 638 215 loadbang;
#X text 448 331 plucking position;
#X msg 638 251 0.7;
#X connect 1 0 2 0;
#X connect 2 0 0 0;
#X connect 3 0 0 0;
#X connect 4 0 0 0;
#X connect 5 0 3 0;
#X connect 6 0 20 0;
#X connect 7 0 38 0;
#X connect 8 0 13 0;
#X connect 9 0 10 0;
#X connect 10 0 11 0;
#X connect 11 0 1 0;
#X connect 12 0 11 0;
#X connect 13 0 17 0;
#X connect 14 0 17 1;
#X connect 15 0 13 1;
#X connect 16 0 12 0;
#X connect 17 0 18 0;
#X connect 18 0 16 0;
#X connect 19 0 18 1;
#X connect 20 0 1 0;
#X connect 21 0 17 0;
#X connect 22 0 23 0;
#X connect 23 0 27 0;
#X connect 24 0 23 0;
#X connect 25 0 24 0;
#X connect 26 0 22 0;
#X connect 27 0 28 0;
#X connect 28 0 14 0;
#X connect 29 0 28 1;
#X connect 33 0 6 0;
#X connect 34 0 33 0;
#X connect 35 0 39 0;
#X connect 38 0 20 0;
#X connect 39 0 19 0;
#X connect 40 0 42 0;
#X connect 42 0 14 0;
