#N canvas 0 106 1920 974 10;
#X obj 190 208 osc~;
#X obj 190 231 snapshot~;
#X obj 279 213 metro 10;
#X obj 279 172 tgl 15 0 empty empty empty 17 7 0 10 -262144 -1 -1 0
1;
#X floatatom 190 144 5 0 0 0 - - -, f 5;
#X floatatom 190 311 5 0 0 0 - - -, f 5;
#X obj 817 177 line;
#X obj 913 751 netsend -u -b;
#X obj 913 614 list prepend send;
#X obj 913 637 list trim;
#X msg 1183 413 set gain;
#X msg 1010 671 connect 10.11.12.1 6666;
#X msg 1011 714 disconnect;
#X floatatom 1130 341 5 0 0 0 - gain -, f 5;
#X obj 1183 436 oscformat -f gain;
#X obj 749 39 bng 15 250 50 0 empty empty empty 17 7 0 10 -262144 -1
-1;
#X msg 848 136 1;
#X obj 733 94 delay 10;
#X obj 1183 390 loadbang;
#X obj 1010 647 loadbang;
#X floatatom 759 345 5 0 0 0 - modulator -, f 5;
#X obj 812 394 loadbang;
#X floatatom 559 346 5 0 0 0 - carrier -, f 5;
#X obj 612 395 loadbang;
#X msg 612 418 set carrier;
#X obj 612 441 oscformat -f carrier;
#X obj 812 440 oscformat -f modulator;
#X msg 812 417 set modulator;
#X floatatom 957 343 5 0 0 0 - index -, f 5;
#X obj 1010 438 oscformat -f index;
#X msg 1010 413 set index;
#X obj 1010 388 loadbang;
#X obj 190 276 * 1000;
#X obj 190 333 s index;
#X obj 671 183 line;
#X msg 704 130 0 2000;
#X obj 817 221 s gain;
#X obj 817 200 *;
#X msg 786 136 0 2000;
#X obj 671 206 s index;
#X text 781 34 bang to start sound;
#X text 522 318 carrier freq: 266;
#X text 737 317 mod freq: 450;
#X text 954 317 index;
#X text 1122 316 gain;
#X text 256 147 modulate index;
#X msg 636 131 set 5000;
#X connect 0 0 1 0;
#X connect 1 0 32 0;
#X connect 2 0 1 0;
#X connect 3 0 2 0;
#X connect 4 0 0 0;
#X connect 5 0 33 0;
#X connect 6 0 37 0;
#X connect 6 0 37 1;
#X connect 8 0 9 0;
#X connect 9 0 7 0;
#X connect 10 0 14 0;
#X connect 11 0 7 0;
#X connect 12 0 7 0;
#X connect 13 0 14 0;
#X connect 14 0 8 0;
#X connect 15 0 46 0;
#X connect 15 0 16 0;
#X connect 15 0 17 0;
#X connect 16 0 6 0;
#X connect 17 0 35 0;
#X connect 17 0 38 0;
#X connect 18 0 10 0;
#X connect 19 0 11 0;
#X connect 20 0 26 0;
#X connect 21 0 27 0;
#X connect 22 0 25 0;
#X connect 23 0 24 0;
#X connect 24 0 25 0;
#X connect 25 0 8 0;
#X connect 26 0 8 0;
#X connect 27 0 26 0;
#X connect 28 0 29 0;
#X connect 29 0 8 0;
#X connect 30 0 29 0;
#X connect 31 0 30 0;
#X connect 32 0 5 0;
#X connect 34 0 39 0;
#X connect 35 0 34 0;
#X connect 37 0 36 0;
#X connect 38 0 6 0;
#X connect 46 0 34 0;
