#N canvas 0 119 1920 961 10;
#X obj 913 751 netsend -u -b;
#X obj 913 614 list prepend send;
#X obj 913 637 list trim;
#X msg 1011 714 disconnect;
#X obj 1010 647 loadbang;
#X floatatom 834 378 5 0 0 0 - - -, f 5;
#X obj 887 427 loadbang;
#X obj 569 550 loadbang;
#X msg 569 573 set trigger;
#X obj 887 473 oscformat -f shift;
#X msg 834 318 0.99;
#X obj 834 282 loadbang;
#X text 788 379 gain;
#X msg 887 449 set gain;
#X msg 1010 671 connect localhost 6666;
#X obj 569 596 oscformat -i trigger;
#X msg 470 570 1;
#X connect 1 0 2 0;
#X connect 2 0 0 0;
#X connect 3 0 0 0;
#X connect 4 0 14 0;
#X connect 5 0 9 0;
#X connect 6 0 13 0;
#X connect 7 0 8 0;
#X connect 8 0 15 0;
#X connect 9 0 1 0;
#X connect 10 0 5 0;
#X connect 11 0 10 0;
#X connect 13 0 9 0;
#X connect 14 0 0 0;
#X connect 15 0 1 0;
#X connect 16 0 15 0;
